<?xml version="1.0" encoding="UTF-8" standalone="no"?>
<svg
   xmlns:dc="http://purl.org/dc/elements/1.1/"
   xmlns:cc="http://creativecommons.org/ns#"
   xmlns:rdf="http://www.w3.org/1999/02/22-rdf-syntax-ns#"
   xmlns:svg="http://www.w3.org/2000/svg"
   xmlns="http://www.w3.org/2000/svg"
   xmlns:xlink="http://www.w3.org/1999/xlink"
   xmlns:sodipodi="http://sodipodi.sourceforge.net/DTD/sodipodi-0.dtd"
   xmlns:inkscape="http://www.inkscape.org/namespaces/inkscape"
   width="900"
   height="900"
   viewBox="0 0 180 180"
   id="svg3412"
   version="1.1"
   inkscape:version="0.91 r13725"
   sodipodi:docname="icon.svg"
   inkscape:export-filename="/home/bameda/projects/2016/icon256.png"
   inkscape:export-xdpi="25.6"
   inkscape:export-ydpi="25.6">
  <metadata
     id="metadata3448">
    <rdf:RDF>
      <cc:Work
         rdf:about="">
        <dc:format>image/svg+xml</dc:format>
        <dc:type
           rdf:resource="http://purl.org/dc/dcmitype/StillImage" />
        <dc:title></dc:title>
      </cc:Work>
    </rdf:RDF>
  </metadata>
  <sodipodi:namedview
     pagecolor="#ffffff"
     bordercolor="#666666"
     borderopacity="1"
     objecttolerance="10"
     gridtolerance="10"
     guidetolerance="10"
     inkscape:pageopacity="0"
     inkscape:pageshadow="2"
     inkscape:window-width="1918"
     inkscape:window-height="1059"
     id="namedview3446"
     showgrid="false"
     inkscape:zoom="0.72333333"
     inkscape:cx="450"
     inkscape:cy="410.59908"
     inkscape:window-x="0"
     inkscape:window-y="19"
     inkscape:window-maximized="1"
     inkscape:current-layer="svg3412"
     borderlayer="true" />
  <defs
     id="defs3414">
    <g
       id="s"
       transform="translate(0,-36)">
      <g
         id="f">
        <g
           id="t">
          <path
             d="M 0,-5 0,0 3,0 Z"
             transform="matrix(0.95105652,0.30901699,-0.30901699,0.95105652,-1.545085,-0.24471742)"
             id="o"
             inkscape:connector-curvature="0"
             style="fill:#ffffff" />
          <use
             xlink:href="#o"
             transform="scale(-1,1)"
             id="use3420"
             x="0"
             y="0"
             width="100%"
             height="100%" />
        </g>
        <use
           xlink:href="#t"
           transform="matrix(0.30901699,0.95105652,-0.95105652,0.30901699,0,0)"
           id="use3422"
           x="0"
           y="0"
           width="100%"
           height="100%" />
      </g>
      <use
         xlink:href="#t"
         transform="matrix(0.30901699,-0.95105652,0.95105652,0.30901699,0,0)"
         id="use3424"
         x="0"
         y="0"
         width="100%"
         height="100%" />
      <use
         xlink:href="#f"
         transform="matrix(-0.80901699,0.58778525,-0.58778525,-0.80901699,0,0)"
         id="use3426"
         x="0"
         y="0"
         width="100%"
         height="100%" />
    </g>
  </defs>
  <g
     id="g4246"
     transform="translate(0.0589862,-30.967742)">
    <g
       transform="translate(0,60)"
       id="g3450">
      <path
         style="fill:#cf142b"
         inkscape:connector-curvature="0"
         d="m 0,0 180,0 0,120 -180,0 z"
         id="path3428" />
      <path
         style="fill:#00247d"
         inkscape:connector-curvature="0"
         d="M 0,0 180,0 180,80 0,80 Z"
         id="path3430" />
      <path
         style="fill:#ffcc00"
         inkscape:connector-curvature="0"
         d="M 0,0 180,0 180,40 0,40 Z"
         id="path3432" />
      <g
         transform="translate(90,84)"
         id="g3434">
        <g
           id="s4">
          <g
             id="s2">
            <use
               height="100%"
               width="100%"
               y="0"
               x="0"
               xlink:href="#s"
               transform="matrix(0.98480775,0.17364818,-0.17364818,0.98480775,0,0)"
               id="use3438" />
            <use
               height="100%"
               width="100%"
               y="0"
               x="0"
               xlink:href="#s"
               transform="matrix(0.8660254,0.5,-0.5,0.8660254,0,0)"
               id="use3440" />
          </g>
          <use
             height="100%"
             width="100%"
             y="0"
             x="0"
             xlink:href="#s2"
             transform="matrix(0.76604444,0.64278761,-0.64278761,0.76604444,0,0)"
             id="use3442" />
        </g>
        <use
           height="100%"
           width="100%"
           y="0"
           x="0"
           xlink:href="#s4"
           transform="matrix(0.17364818,-0.98480775,0.98480775,0.17364818,0,0)"
           id="use3444" />
      </g>
    </g>
    <g
       transform="matrix(0.63361342,0,0,0.63361342,34.711238,107.9919)"
       id="g4063">
      <path
         d="m 42.748273,18.246544 39.295,0 -0.375,0.1525 c -1.01,0.125 -2.0225,0.2475 -3.0375,0.32 -0.625,-0.095 -1.25,-0.195 -1.885,-0.195 -11.0025,0.035 -22.0075,-0.005 -33.01,0.0225 -0.47,-0.0775 -0.7875,0.205 -0.9875,0.6 l 0,-0.9 z"
         id="path3669"
         inkscape:connector-curvature="0"
         style="opacity:1;fill:#e7e7e7" />
      <path
         d="m 82.043273,18.246544 25.067497,0 -0.3825,0.1625 c -1.07,0.0925 -2.1475,0.0775 -3.22,0.0875 -6.169997,0.0025 -12.339997,-0.0025 -18.509997,0 -1.11,0.0175 -2.2225,0.0125 -3.33,-0.0975 l 0.375,-0.1525 z"
         id="path3671"
         inkscape:connector-curvature="0"
         style="opacity:1;fill:#636363" />
      <path
         d="m 78.630773,18.719044 c 1.015,-0.0725 2.0275,-0.195 3.0375,-0.32 1.1075,0.11 2.22,0.115 3.33,0.0975 6.17,-0.0025 12.34,0.0025 18.509997,0 1.0725,-0.01 2.15,0.005 3.22,-0.0875 2.2325,0.01 4.4475,0.65 6.41,1.695 3.0725,1.6575 5.365,4.4375 7.0775,7.4275 1.1225,1.9375 1.3875,4.2475 2.545,6.17 0.87,1.445 2.2825,2.425 3.58,3.4525 1.2175,0.94 2.235,2.105 3.3125,3.1975 0.84,0.91 1.7375,1.7975 2.345,2.89 l 0,8.4925 c -0.705,0.32 -0.8775,1.11 -1.2525,1.7125 -1.6575,2.9125 -4.4025,4.9675 -6.3225,7.6775 -1.4475,2.035 -2.11,4.4925 -3.45,6.5875 -0.825,1.3075 -1.9975,2.3375 -3.135,3.365 -3.57,3.07 -7.54,5.665 -11.74,7.7875 -3.4075,1.76 -7.197497,2.605 -10.612497,4.35 -2.6125,1.3025 -5.045,2.9875 -7.805,3.9825 -5.05,1.69 -10.5175,1.7475 -15.485,3.735 -0.375,0.1675 -0.785,0.2275 -1.195,0.2175 -5,-0.0125 -10,0 -15.0025,-0.005 -0.7,0.04 -1.2675,-0.4275 -1.875,-0.705 -2.61,-1.345 -5.3575,-2.805 -7.02,-5.3225 -1.3475,-2.0125 -1.3725,-4.54 -1.29,-6.8725 0.2475,-5.11 1.375,-10.1425 1.515,-15.2625 0.025,-2.385 0.0125,-4.88 -0.97,-7.1025 -0.9875,-2.335 -2.8575,-4.215 -3.61,-6.6575 l 0,-8.67 0.0025,0.3125 c 1.0375,-3.0525 4.4525,-4.195 5.965,-6.9075 0.8675,-1.49 0.8375,-3.28 0.645,-4.94 2.3425,-3.55 6.1925,-5.765 10.16,-7.0525 6.1775,-2.01 12.695,-2.5175 19.11,-3.245 m -2.885,2.43 c -2.605,0.1825 -5.5525,-0.265 -7.7775,1.4125 -1.765,-0.0675 -3.5575,-0.085 -5.285,0.3325 -4.4825,1.0025 -8.41,3.74 -11.4625,7.1025 0.4125,1.48 0.5175,3.135 -0.2225,4.535 -1.3725,2.7025 -4.69,3.6825 -6.04,6.4 -0.8925,2.23 -0.985,4.7825 -0.2225,7.0625 0.6325,2.0325 1.9,3.77 2.865,5.645 1,1.88 1.32,4.025 1.535,6.1175 0.635,7.525 -1.41,14.96 -1.16,22.48 0.935,2.0875 2.5725,3.825 4.4725,5.08 2.6675,1.7775 5.9,2.4925 9.07,2.5725 4.8925,0.22 9.715,-0.9175 14.3725,-2.305 2.7275,-0.79 5.4375,-1.7025 8.255,-2.12 1.1225,-0.16 2.2775,0.41 3.36,-0.075 2.0275,-0.7575 3.8875,-1.88 5.7875,-2.9 4.7675,-2.6075 9.892497,-4.4775 14.684997,-7.035 3.045,-1.64 6,-3.555 8.37,-6.1 3.4675,-3.71 5.5125,-8.445 8.65,-12.4025 -0.7325,-0.26 -1.4525,1.155 -1.9325,0.265 0.2825,-0.34 0.7825,-0.375 1.16,-0.575 2.7725,-1.0725 5.0575,-3.4625 5.74,-6.39 1.42,-5.6275 -2.4975,-12.08 -8.2775,-13.0925 0.4775,-0.135 0.9475,-0.2975 1.4125,-0.475 -0.44,-0.6475 -1.02,-1.1825 -1.475,-1.82 -2.365,-3.2325 -3.4425,-7.225 -5.9275,-10.3825 -1.0375,-1.295 -2.3175,-2.46 -3.9025,-3.025 -2.7175,-1.0025 -5.6525,-1.0475 -8.51,-1.2225 -9.187497,-0.4425 -18.382497,0.1875 -27.539997,0.915 z"
         id="path3677"
         inkscape:connector-curvature="0"
         style="opacity:1;fill:#000000" />
      <path
         d="m 75.745773,21.149044 c 9.1575,-0.7275 18.3525,-1.3575 27.539997,-0.915 2.8575,0.175 5.7925,0.22 8.51,1.2225 1.585,0.565 2.865,1.73 3.9025,3.025 2.485,3.1575 3.5625,7.15 5.9275,10.3825 0.455,0.6375 1.035,1.1725 1.475,1.82 -0.465,0.1775 -0.935,0.34 -1.4125,0.475 5.78,1.0125 9.6975,7.465 8.2775,13.0925 -0.6825,2.9275 -2.9675,5.3175 -5.74,6.39 -0.3775,0.2 -0.8775,0.235 -1.16,0.575 0.48,0.89 1.2,-0.525 1.9325,-0.265 -3.1375,3.9575 -5.1825,8.6925 -8.65,12.4025 -2.37,2.545 -5.325,4.46 -8.37,6.1 -4.7925,2.5575 -9.917497,4.4275 -14.684997,7.035 -1.9,1.02 -3.76,2.1425 -5.7875,2.9 -1.0825,0.485 -2.2375,-0.085 -3.36,0.075 -2.8175,0.4175 -5.5275,1.33 -8.255,2.12 -4.6575,1.3875 -9.48,2.525 -14.3725,2.305 -3.17,-0.08 -6.4025,-0.795 -9.07,-2.5725 -1.9,-1.255 -3.5375,-2.9925 -4.4725,-5.08 -0.25,-7.52 1.795,-14.955 1.16,-22.48 -0.215,-2.0925 -0.535,-4.2375 -1.535,-6.1175 -0.965,-1.875 -2.2325,-3.6125 -2.865,-5.645 -0.7625,-2.28 -0.67,-4.8325 0.2225,-7.0625 1.35,-2.7175 4.6675,-3.6975 6.04,-6.4 0.74,-1.4 0.635,-3.055 0.2225,-4.535 3.0525,-3.3625 6.98,-6.1 11.4625,-7.1025 1.7275,-0.4175 3.52,-0.4 5.285,-0.3325 2.225,-1.6775 5.1725,-1.23 7.7775,-1.4125 m -6.4875,1.3725 c 0.7,0.62 1.6375,0.2275 2.47,0.36 5.9675,0.695 11.8325,-1.0325 17.7625,-1.3375 4.225,-0.3575 8.485,0.615 12.312497,2.3875 3.9425,1.815 7.3825,4.495 10.93,6.9525 -1.375,-1.92 -3.3525,-3.2975 -5.3275,-4.535 -3.2,-1.925 -6.5575,-3.6725 -10.174997,-4.6575 -2.9225,-0.8 -5.995,-0.88 -9,-0.6225 -6.325,0.4125 -12.61,2.135 -18.9725,1.4525 m 2.745,2.87 c -2.6275,0.0625 -5.1775,-0.635 -7.765,-0.9525 -1.0225,-0.0725 -2.205,-0.2 -3.06,0.4875 -0.44,0.3375 -0.555,0.9075 -0.6775,1.415 0.74,-0.5625 1.43,-1.5775 2.4825,-1.41 4.88,1.3675 10.025,1.1025 15.005,0.54 4.0775,-0.4425 8.1375,-1.2675 12.2575,-1.135 5.9625,0.115 11.952497,2.0525 16.624997,5.8025 1.0625,0.9675 2.005,2.4625 3.6575,2.2725 -5.5425,-6.025 -13.942497,-8.9175 -22.024997,-8.6575 -5.535,0.1775 -10.94,1.8 -16.5,1.6375 m 14.2025,1.82 c -0.0575,0.1425 -0.175,0.4275 -0.235,0.57 0.6075,-0.09 1.1775,-0.32 1.7125,-0.615 3.2725,-0.0825 6.5725,0.01 9.78,0.715 3.769997,0.8125 7.644997,2.4 10.027497,5.575 -1.6125,-3.4325 -5.36,-5.1975 -8.869997,-6.04 -4.0675,-0.94 -8.3125,-0.8875 -12.415,-0.205 m -26.5125,3.225 c 0.2575,1.1575 -1.285,2.41 -0.13,3.3325 0.1575,-0.965 0.3275,-1.965 0.905,-2.7825 0.99,-1.515 2.79,-2.2325 4.51,-2.5325 3.365,-0.52 6.775,0.0925 10.015,1.0075 -1.59,-1.3425 -3.7525,-1.5925 -5.7475,-1.7525 -3.3625,-0.2375 -6.9175,0.54 -9.5525,2.7275 m 26.0875,-0.4475 c -0.02,1.1175 -0.025,2.2375 0.0175,3.355 1.1325,-0.75 -0.16,-2.3025 0.6125,-3.2475 0.6225,-0.7425 1.47,-1.2775 1.9975,-2.105 -0.1725,-0.09 -0.5175,-0.2725 -0.69,-0.365 -0.6125,0.815 -1.24,1.6175 -1.9375,2.3625 m -13.545,0.845 c 0.34,0.2125 0.785,0.3475 0.96,0.7475 0.675,1.395 0.025,3.1075 0.8625,4.4525 0.05,-1.355 0.01,-2.7125 0.02,-4.0675 -0.445,-0.545 -0.84,-1.1275 -1.32,-1.6425 -0.175,0.17 -0.35,0.34 -0.5225,0.51 m 15.2825,4.195 c -1.43,0.9125 -2.8125,2.2425 -3.1375,3.965 0.4275,1.605 2.2225,2.0325 3.28,3.1075 4.0275,-2.3025 8.71,-3.5975 13.364997,-3.2175 1.5175,0.155 2.93,0.955 4.4825,0.825 0.6625,-0.005 1.2,-0.43 1.7125,-0.7975 -0.3,-1.425 -1.1025,-2.7275 -2.2375,-3.64 -1.835,-1.4875 -4.1975,-2.165 -6.512497,-2.42 -3.745,-0.325 -7.6975,0.195 -10.9525,2.1775 m -24.945,0.3625 c -1.415,0.4225 -2.585,1.5375 -2.985,2.9725 3.6525,1.765 7.9175,0.6975 11.685,2.0425 0.6925,0.26 1.3625,0.635 1.85,1.2025 0.09,1.105 0.0125,2.22 0.035,3.33 -4.0025,2.2725 -7.365,5.5025 -11.3875,7.7375 1.8225,-0.57 3.52,-1.4675 5.29,-2.1725 0.07,0.48 0.07,1.1325 0.635,1.3175 0.67,0.0525 1.2025,-0.43 1.71,-0.7925 0.61,1.7475 2.0375,3.0825 3.615,3.98 1.005,0.545 2.2725,0.9525 3.365,0.4175 0.84,-0.41 1.2,-1.3325 1.4625,-2.1675 -0.2775,-0.165 -0.57,-0.295 -0.88,-0.385 -0.74,0.355 -1.345,1.1575 -2.2575,0.9775 -1.6925,-1.185 -3.3825,-2.68 -3.93,-4.7575 1.115,-1.4675 3.1175,-1.8875 4.225,-3.3225 0.05,-1.53 0.0125,-3.06 0.0075,-4.59 1.2925,-0.405 3.0225,-0.67 3.3575,-2.25 -1.0425,-1.075 -2.4875,-0.1175 -3.705,0.0175 -0.7,-1.41 -2.055,-2.33 -3.48,-2.9025 -2.7025,-1.07 -5.79,-1.5275 -8.6125,-0.655 m 45.582497,2 c 1,0.165 2.11,0.23 2.855,1.0125 -0.72,0.0375 -1.5025,-0.0825 -2.1075,0.405 1.2175,0.0725 3.155,0.3475 3.525,-1.2225 -1.215,0.165 -2.3325,-0.365 -3.4675,-0.6875 -0.2725,0.1575 -0.5425,0.32 -0.805,0.4925 m -57.424997,0.52 c -2.0825,1.0975 -3.915,2.79 -4.845,4.9825 -1.06,2.43 -0.88,5.32 0.2725,7.68 1.625,1.3125 3.7525,1.7325 5.575,2.7 -0.25,-0.335 -0.4975,-0.6725 -0.8075,-0.95 -1.11,-1.035 -2.855,-0.9675 -3.8875,-2.115 -1.235,-1.4825 -1.73,-3.5675 -1.285,-5.4475 0.71,-2.96 3.175,-5.285 5.9625,-6.3325 2.3375,-0.18 4.8925,0.8275 7.0375,-0.5125 -2.6675,-0.405 -5.35,0.48 -8.0225,-0.005 m 64.944997,0.4475 c 2.2875,0.045 4.575,0.005 6.865,0.0275 0.7525,0.9725 2.405,0.4025 2.9025,1.6275 1.54,2.61 2.2725,5.71 2.12,8.73 -0.0775,1.6025 -0.4675,3.285 -1.5325,4.53 -1.155,1.3525 -3.4475,0.6875 -4.3675,2.3625 1.86,-0.3525 3.6575,-1.16 5.1225,-2.3625 0.93,-2.03 0.83,-4.325 0.99,-6.505 0.02,-1.4025 0.015,-2.805 -0.075,-4.205 -1.145,-1.3425 -1.8475,-3.135 -3.45,-4.0325 -1.365,-0.8425 -3,-0.495 -4.5075,-0.57 -1.3475,0.01 -2.8725,-0.41 -4.0675,0.3975 m -7.6175,1.3775 c 0.56,0.1375 1.1175,0.29 1.6725,0.44 0.4325,-1 -1.245,-1.0775 -1.6725,-0.44 m -2.3075,3.28 c -1.5425,0.27 -3.2625,0.2425 -4.595,-0.68 -1.404997,-0.865 -2.447497,-2.51 -4.249997,-2.5575 0.0025,1.695 1.045,3.205 2.4425,4.0875 1.704997,1.2125 3.879997,1.475 5.917497,1.32 1.975,-0.1525 3.8075,-0.9875 5.545,-1.88 1.4725,-0.75 2.9825,-1.5825 4.6675,-1.69 1.8725,-0.165 3.9225,0.005 5.4675,1.1825 1.5725,1.2 2.1925,3.2875 2.1625,5.195 -0.03,1.195 -0.81,2.16 -1.1375,3.2675 -0.215,0.68 -0.015,1.3875 0.1525,2.055 1.6525,-1.27 2.7625,-3.225 2.91,-5.3125 0.1725,-2.6475 -0.9925,-5.355 -3.0425,-7.04 -1.5075,-1.2875 -3.595,-1.595 -5.5075,-1.37 -3.775,0.4625 -7.02,2.7225 -10.7325,3.4225 m -54.017497,-2.7325 c -0.8175,0.555 -1.7675,0.8525 -2.625,1.335 -0.2675,0.19 -0.65,0.3575 -0.6975,0.7225 -0.2675,1.61 -0.41,3.2625 -0.21,4.89 0.13,0.8175 0.3625,1.73 1.0625,2.25 0.5475,0.3925 1.2425,0.305 1.8575,0.16 -0.965,-0.3 -2.0275,-0.8075 -2.295,-1.8825 -0.425,-1.735 -0.055,-3.545 0.11,-5.2925 0.7775,-0.87 2.1425,-0.7725 2.9625,-1.5675 0.2025,-0.2225 -0.0975,-0.415 -0.165,-0.615 m 0.47,2.1675 c -1.04,0.4225 -1.745,1.415 -1.92,2.51 2.2525,-0.1175 4.47,-1.295 6.7375,-0.7025 1.12,0.2975 1.63,1.4625 1.7125,2.5275 1.7325,-0.0325 3.575,0.1875 5.2125,-0.5025 0.9325,-0.3725 1.31,-1.3975 1.2975,-2.335 -0.335,-0.1175 -0.6525,-0.36 -1.0275,-0.2925 -0.9525,0.3125 -1.67,1.1075 -2.67,1.3175 -0.97,-1.3775 -2.595,-2.0725 -4.1575,-2.54 -1.675,-0.4475 -3.5425,-0.6575 -5.185,0.0175 m 62.879997,0.6325 c -0.2475,0.5825 -0.2475,1.275 -0.68,1.77 -1.0175,1.245 -2.465,2.0225 -3.875,2.74 -3.2525,1.5725 -6.7,2.68 -10.14,3.7575 -4.437497,1.335 -8.887497,2.6325 -13.399997,3.6875 -4.835,1.105 -9.765,1.99 -14.74,1.92 -2.9025,-0.0025 -5.835,-0.385 -8.5625,-1.4125 -2.4775,-0.935 -4.7675,-2.48 -6.385,-4.595 -0.785,-1.475 -0.11,-3.2575 -0.7325,-4.785 -0.1025,-0.38 -0.5775,-0.385 -0.8575,-0.5625 -0.8075,0.54 -0.48,1.585 -0.69,2.3875 -0.3775,0.98 -1.2375,1.7 -1.5375,2.72 -0.8075,2.595 -0.97,5.3325 -1.025,8.035 0.065,3.2075 0.325,6.4525 1.28,9.535 0.4375,1.34 0.9925,2.74 2.1325,3.6425 1.165,0.9275 2.5875,1.4475 3.995,1.8825 3.46,0.995 7.0675,1.33 10.6475,1.54 5.8075,0.23 11.6625,0.135 17.4,-0.86 7.0275,-1.2 13.882497,-4.06 19.232497,-8.84 2.6225,-2.365 4.51,-5.375 6.4675,-8.2775 0.9925,-1.4275 2.0025,-2.885 3.3625,-3.99 -0.125,-0.535 -0.4475,-1.0925 -0.2275,-1.645 0.245,-0.715 0.5675,-1.4 0.81,-2.115 1.345,0.41 2.9875,0.8875 4.2225,-0.0525 -0.195,-0.34 -0.3075,-0.7375 -0.6,-1.01 -1.19,-1.02 -3.1175,-0.5725 -4.165,-1.805 -0.2875,-0.9675 -0.15,-2.0325 -0.5575,-2.97 -0.2225,-0.52 -0.8225,-0.8375 -1.375,-0.6975 m -29.827497,4.155 c 0.05,0.4325 0.025,1.025 0.53,1.205 1.015,0.4525 2.2125,0.04 3.23,0.5025 0.545,0.285 0.6125,0.9875 0.62,1.5375 -0.0225,1.08 -1.7,1.1325 -1.605,2.2625 -0.1875,0.8975 1.12,1.01 1.7225,0.8 1.41,-0.6325 1.7275,-2.4025 1.725,-3.79 -0.0625,-0.6575 0.13,-1.5425 -0.54,-1.95 -1.615,-1.15 -3.8725,-1.43 -5.6825,-0.5675 m 6.5925,-0.475 c -0.0125,0.6425 -0.0125,1.2875 -0.0075,1.93 2.55,0.98 5.3675,-0.1425 7.94,0.78 -0.285,-0.3225 -0.5725,-0.68 -1.0125,-0.785 -1.9025,-0.44 -3.9,0.395 -5.775,-0.2025 -0.725,-0.2225 -0.8325,-0.9925 -0.435,-1.565 -0.235,-0.055 -0.4725,-0.1075 -0.71,-0.1575 m -9.8775,3.44 c -0.89,0.1925 -1.7475,0.8025 -1.8425,1.7725 2.1475,0.9175 4.7,-0.7875 6.65,0.8125 0.355,-0.695 0.4475,-1.47 0.4025,-2.2425 -1.6575,-0.5825 -3.4925,-0.74 -5.21,-0.3425 m 20.722497,21.97 c -5.109997,2.44 -10.144997,5.2075 -15.692497,6.545 -2.87,0.73 -5.8425,0.8525 -8.78,1.1125 -5.15,0.32 -10.415,0.55 -15.47,-0.7025 -2.4625,-0.5975 -4.815,-1.825 -6.4175,-3.8275 0.645,1.31 1.61,2.475 2.85,3.26 2.2425,1.435 4.95,1.815 7.5525,2.01 5.5975,0.3275 11.2075,-0.05 16.775,-0.625 4.6675,-0.4375 9.135,-2.06 13.3275,-4.0925 3.844997,-1.8275 7.482497,-4.0675 11.384997,-5.775 -1.93,0.44 -3.7375,1.2725 -5.53,2.095 m 10.075,-2.0725 c -7.605,4.3475 -15.817497,7.6075 -24.274997,9.8775 -6.52,1.75 -13.2475,2.6375 -19.9875,2.8975 -3.36,0.0875 -6.7675,0 -10.04,-0.8425 -2.0775,-0.555 -4.17,-1.485 -5.56,-3.185 -0.86,-0.765 0.445,-2.275 -0.725,-2.8375 -0.065,0.9925 -0.03,1.99 -0.04,2.985 1.4375,1.8025 3.525,2.9925 5.74,3.56 3.55,0.925 7.2575,0.805 10.8925,0.6925 9.165,-0.3 18.275,-1.95 26.995,-4.775 4.844997,-1.605 9.599997,-3.5675 13.967497,-6.23 1.0475,-0.6575 2.115,-1.305 3.0325,-2.1425 m -45.564997,7.435 c 1.7625,-0.0175 3.525,-0.0375 5.285,0.0125 3.2775,0.0575 6.6,0.2925 9.83,-0.385 -3.265,-0.155 -6.5425,-0.0175 -9.81,-0.0125 -1.755,0.005 -3.6775,-0.4825 -5.305,0.385 z"
         id="path3679"
         inkscape:connector-curvature="0"
         style="opacity:1;fill:#ffffff" />
      <path
         d="m 69.258273,22.521544 c 6.3625,0.6825 12.6475,-1.04 18.9725,-1.4525 3.005,-0.2575 6.0775,-0.1775 9,0.6225 3.617497,0.985 6.974997,2.7325 10.174997,4.6575 1.975,1.2375 3.9525,2.615 5.3275,4.535 -3.5475,-2.4575 -6.9875,-5.1375 -10.93,-6.9525 -3.827497,-1.7725 -8.087497,-2.745 -12.312497,-2.3875 -5.93,0.305 -11.795,2.0325 -17.7625,1.3375 -0.8325,-0.1325 -1.77,0.26 -2.47,-0.36 z"
         id="path3681"
         inkscape:connector-curvature="0"
         style="opacity:1;fill:#000000" />
      <path
         d="m 72.003273,25.391544 c 5.56,0.1625 10.965,-1.46 16.5,-1.6375 8.0825,-0.26 16.482497,2.6325 22.024997,8.6575 -1.6525,0.19 -2.595,-1.305 -3.6575,-2.2725 -4.6725,-3.75 -10.662497,-5.6875 -16.624997,-5.8025 -4.12,-0.1325 -8.18,0.6925 -12.2575,1.135 -4.98,0.5625 -10.125,0.8275 -15.005,-0.54 -1.0525,-0.1675 -1.7425,0.8475 -2.4825,1.41 0.1225,-0.5075 0.2375,-1.0775 0.6775,-1.415 0.855,-0.6875 2.0375,-0.56 3.06,-0.4875 2.5875,0.3175 5.1375,1.015 7.765,0.9525 z"
         id="path3683"
         inkscape:connector-curvature="0"
         style="opacity:1;fill:#000000" />
      <path
         d="m 86.205773,27.211544 c 4.1025,-0.6825 8.3475,-0.735 12.415,0.205 3.509997,0.8425 7.257497,2.6075 8.869997,6.04 -2.3825,-3.175 -6.2575,-4.7625 -10.027497,-5.575 -3.2075,-0.705 -6.5075,-0.7975 -9.78,-0.715 -0.535,0.295 -1.105,0.525 -1.7125,0.615 0.06,-0.1425 0.1775,-0.4275 0.235,-0.57 z"
         id="path3685"
         inkscape:connector-curvature="0"
         style="opacity:1;fill:#000000" />
      <path
         d="m 59.693273,30.436544 c 2.635,-2.1875 6.19,-2.965 9.5525,-2.7275 1.995,0.16 4.1575,0.41 5.7475,1.7525 -3.24,-0.915 -6.65,-1.5275 -10.015,-1.0075 -1.72,0.3 -3.52,1.0175 -4.51,2.5325 -0.5775,0.8175 -0.7475,1.8175 -0.905,2.7825 -1.155,-0.9225 0.3875,-2.175 0.13,-3.3325 z"
         id="path3687"
         inkscape:connector-curvature="0"
         style="opacity:1;fill:#000000" />
      <path
         d="m 85.780773,29.989044 c 0.6975,-0.745 1.325,-1.5475 1.9375,-2.3625 0.1725,0.0925 0.5175,0.275 0.69,0.365 -0.5275,0.8275 -1.375,1.3625 -1.9975,2.105 -0.7725,0.945 0.52,2.4975 -0.6125,3.2475 -0.0425,-1.1175 -0.0375,-2.2375 -0.0175,-3.355 z"
         id="path3689"
         inkscape:connector-curvature="0"
         style="opacity:1;fill:#000000" />
      <path
         d="m 72.235773,30.834044 c 0.1725,-0.17 0.3475,-0.34 0.5225,-0.51 0.48,0.515 0.875,1.0975 1.32,1.6425 -0.01,1.355 0.03,2.7125 -0.02,4.0675 -0.8375,-1.345 -0.1875,-3.0575 -0.8625,-4.4525 -0.175,-0.4 -0.62,-0.535 -0.96,-0.7475 z"
         id="path3691"
         inkscape:connector-curvature="0"
         style="opacity:1;fill:#000000" />
      <path
         d="m 87.518273,35.029044 c 3.255,-1.9825 7.2075,-2.5025 10.9525,-2.1775 2.314997,0.255 4.677497,0.9325 6.512497,2.42 1.135,0.9125 1.9375,2.215 2.2375,3.64 -0.5125,0.3675 -1.05,0.7925 -1.7125,0.7975 -1.5525,0.13 -2.965,-0.67 -4.4825,-0.825 -4.654997,-0.38 -9.337497,0.915 -13.364997,3.2175 -1.0575,-1.075 -2.8525,-1.5025 -3.28,-3.1075 0.325,-1.7225 1.7075,-3.0525 3.1375,-3.965 m 0.615,2.1 c -0.7275,0.4975 -1.165,1.3425 -1.045,2.2325 1.3725,0.555 2.66,-0.34 3.8075,-0.995 1.1075,-0.67 2.395,-1.08 3.7,-0.9225 -0.2925,-0.9325 -0.2175,-1.995 -0.81,-2.8175 -1.8925,0.8075 -3.9625,1.285 -5.6525,2.5025 m 13.872497,-0.14 c 0.945,0.3125 1.9375,0.955 2.9575,0.62 -0.6875,-0.7625 -2.175,-1.805 -2.9575,-0.62 z"
         id="path3693"
         inkscape:connector-curvature="0"
         style="opacity:1;fill:#000000" />
      <path
         d="m 88.133273,37.129044 c 1.69,-1.2175 3.76,-1.695 5.6525,-2.5025 0.5925,0.8225 0.5175,1.885 0.81,2.8175 -1.305,-0.1575 -2.5925,0.2525 -3.7,0.9225 -1.1475,0.655 -2.435,1.55 -3.8075,0.995 -0.12,-0.89 0.3175,-1.735 1.045,-2.2325 z"
         id="path3695"
         inkscape:connector-curvature="0"
         style="opacity:1;fill:#ffffff" />
      <path
         d="m 62.573273,35.391544 c 2.8225,-0.8725 5.91,-0.415 8.6125,0.655 1.425,0.5725 2.78,1.4925 3.48,2.9025 1.2175,-0.135 2.6625,-1.0925 3.705,-0.0175 -0.335,1.58 -2.065,1.845 -3.3575,2.25 0.005,1.53 0.0425,3.06 -0.0075,4.59 -1.1075,1.435 -3.11,1.855 -4.225,3.3225 0.5475,2.0775 2.2375,3.5725 3.93,4.7575 0.9125,0.18 1.5175,-0.6225 2.2575,-0.9775 0.31,0.09 0.6025,0.22 0.88,0.385 -0.2625,0.835 -0.6225,1.7575 -1.4625,2.1675 -1.0925,0.535 -2.36,0.1275 -3.365,-0.4175 -1.5775,-0.8975 -3.005,-2.2325 -3.615,-3.98 -0.5075,0.3625 -1.04,0.845 -1.71,0.7925 -0.565,-0.185 -0.565,-0.8375 -0.635,-1.3175 -1.77,0.705 -3.4675,1.6025 -5.29,2.1725 4.0225,-2.235 7.385,-5.465 11.3875,-7.7375 -0.0225,-1.11 0.055,-2.225 -0.035,-3.33 -0.4875,-0.5675 -1.1575,-0.9425 -1.85,-1.2025 -3.7675,-1.345 -8.0325,-0.2775 -11.685,-2.0425 0.4,-1.435 1.57,-2.55 2.985,-2.9725 m 0.215,1.9925 c 1.4575,-0.115 3.1275,0.6525 4.4225,-0.2925 -1.4625,0.11 -3.13,-0.6575 -4.4225,0.2925 z"
         id="path3697"
         inkscape:connector-curvature="0"
         style="opacity:1;fill:#000000" />
      <path
         d="m 102.00577,36.989044 c 0.7825,-1.185 2.27,-0.1425 2.9575,0.62 -1.02,0.335 -2.0125,-0.3075 -2.9575,-0.62 z"
         id="path3699"
         inkscape:connector-curvature="0"
         style="opacity:1;fill:#ffffff" />
      <path
         d="m 62.788273,37.384044 c 1.2925,-0.95 2.96,-0.1825 4.4225,-0.2925 -1.295,0.945 -2.965,0.1775 -4.4225,0.2925 z"
         id="path3701"
         inkscape:connector-curvature="0"
         style="opacity:1;fill:#ffffff" />
      <path
         d="m 108.15577,37.391544 c 0.2625,-0.1725 0.5325,-0.335 0.805,-0.4925 1.135,0.3225 2.2525,0.8525 3.4675,0.6875 -0.37,1.57 -2.3075,1.295 -3.525,1.2225 0.605,-0.4875 1.3875,-0.3675 2.1075,-0.405 -0.745,-0.7825 -1.855,-0.8475 -2.855,-1.0125 z"
         id="path3703"
         inkscape:connector-curvature="0"
         style="opacity:1;fill:#000000" />
      <path
         d="m 50.730773,37.911544 c 2.6725,0.485 5.355,-0.4 8.0225,0.005 -2.145,1.34 -4.7,0.3325 -7.0375,0.5125 -2.7875,1.0475 -5.2525,3.3725 -5.9625,6.3325 -0.445,1.88 0.05,3.965 1.285,5.4475 1.0325,1.1475 2.7775,1.08 3.8875,2.115 0.31,0.2775 0.5575,0.615 0.8075,0.95 -1.8225,-0.9675 -3.95,-1.3875 -5.575,-2.7 -1.1525,-2.36 -1.3325,-5.25 -0.2725,-7.68 0.93,-2.1925 2.7625,-3.885 4.845,-4.9825 z"
         id="path3705"
         inkscape:connector-curvature="0"
         style="opacity:1;fill:#000000" />
      <path
         d="m 115.67577,38.359044 c 1.195,-0.8075 2.72,-0.3875 4.0675,-0.3975 1.5075,0.075 3.1425,-0.2725 4.5075,0.57 1.6025,0.8975 2.305,2.69 3.45,4.0325 0.09,1.4 0.095,2.8025 0.075,4.205 -0.16,2.18 -0.06,4.475 -0.99,6.505 -1.465,1.2025 -3.2625,2.01 -5.1225,2.3625 0.92,-1.675 3.2125,-1.01 4.3675,-2.3625 1.065,-1.245 1.455,-2.9275 1.5325,-4.53 0.1525,-3.02 -0.58,-6.12 -2.12,-8.73 -0.4975,-1.225 -2.15,-0.655 -2.9025,-1.6275 -2.29,-0.0225 -4.5775,0.0175 -6.865,-0.0275 z"
         id="path3707"
         inkscape:connector-curvature="0"
         style="opacity:1;fill:#000000" />
      <path
         d="m 108.05827,39.736544 c 0.4275,-0.6375 2.105,-0.56 1.6725,0.44 -0.555,-0.15 -1.1125,-0.3025 -1.6725,-0.44 z"
         id="path3709"
         inkscape:connector-curvature="0"
         style="opacity:1;fill:#000000" />
      <path
         d="m 105.75077,43.016544 c 3.7125,-0.7 6.9575,-2.96 10.7325,-3.4225 1.9125,-0.225 4,0.0825 5.5075,1.37 2.05,1.685 3.215,4.3925 3.0425,7.04 -0.1475,2.0875 -1.2575,4.0425 -2.91,5.3125 -0.1675,-0.6675 -0.3675,-1.375 -0.1525,-2.055 0.3275,-1.1075 1.1075,-2.0725 1.1375,-3.2675 0.03,-1.9075 -0.59,-3.995 -2.1625,-5.195 -1.545,-1.1775 -3.595,-1.3475 -5.4675,-1.1825 -1.685,0.1075 -3.195,0.94 -4.6675,1.69 -1.7375,0.8925 -3.57,1.7275 -5.545,1.88 -2.0375,0.155 -4.2125,-0.1075 -5.917497,-1.32 -1.3975,-0.8825 -2.44,-2.3925 -2.4425,-4.0875 1.8025,0.0475 2.845,1.6925 4.249997,2.5575 1.3325,0.9225 3.0525,0.95 4.595,0.68 z"
         id="path3711"
         inkscape:connector-curvature="0"
         style="opacity:1;fill:#000000" />
      <path
         d="m 51.733273,40.284044 c 0.0675,0.2 0.3675,0.3925 0.165,0.615 -0.82,0.795 -2.185,0.6975 -2.9625,1.5675 -0.165,1.7475 -0.535,3.5575 -0.11,5.2925 0.2675,1.075 1.33,1.5825 2.295,1.8825 -0.615,0.145 -1.31,0.2325 -1.8575,-0.16 -0.7,-0.52 -0.9325,-1.4325 -1.0625,-2.25 -0.2,-1.6275 -0.0575,-3.28 0.21,-4.89 0.0475,-0.365 0.43,-0.5325 0.6975,-0.7225 0.8575,-0.4825 1.8075,-0.78 2.625,-1.335 z"
         id="path3713"
         inkscape:connector-curvature="0"
         style="opacity:1;fill:#000000" />
      <path
         d="m 52.203273,42.451544 c 1.6425,-0.675 3.51,-0.465 5.185,-0.0175 1.5625,0.4675 3.1875,1.1625 4.1575,2.54 1,-0.21 1.7175,-1.005 2.67,-1.3175 0.375,-0.0675 0.6925,0.175 1.0275,0.2925 0.0125,0.9375 -0.365,1.9625 -1.2975,2.335 -1.6375,0.69 -3.48,0.47 -5.2125,0.5025 -0.0825,-1.065 -0.5925,-2.23 -1.7125,-2.5275 -2.2675,-0.5925 -4.485,0.585 -6.7375,0.7025 0.175,-1.095 0.88,-2.0875 1.92,-2.51 z"
         id="path3715"
         inkscape:connector-curvature="0"
         style="opacity:1;fill:#000000" />
      <path
         d="m 115.08327,43.084044 c 0.5525,-0.14 1.1525,0.1775 1.375,0.6975 0.4075,0.9375 0.27,2.0025 0.5575,2.97 1.0475,1.2325 2.975,0.785 4.165,1.805 0.2925,0.2725 0.405,0.67 0.6,1.01 -1.235,0.94 -2.8775,0.4625 -4.2225,0.0525 -0.2425,0.715 -0.565,1.4 -0.81,2.115 -0.22,0.5525 0.1025,1.11 0.2275,1.645 -1.36,1.105 -2.37,2.5625 -3.3625,3.99 -1.9575,2.9025 -3.845,5.9125 -6.4675,8.2775 -5.35,4.78 -12.204997,7.64 -19.232497,8.84 -5.7375,0.995 -11.5925,1.09 -17.4,0.86 -3.58,-0.21 -7.1875,-0.545 -10.6475,-1.54 -1.4075,-0.435 -2.83,-0.955 -3.995,-1.8825 -1.14,-0.9025 -1.695,-2.3025 -2.1325,-3.6425 -0.955,-3.0825 -1.215,-6.3275 -1.28,-9.535 0.055,-2.7025 0.2175,-5.44 1.025,-8.035 0.3,-1.02 1.16,-1.74 1.5375,-2.72 0.21,-0.8025 -0.1175,-1.8475 0.69,-2.3875 0.28,0.1775 0.755,0.1825 0.8575,0.5625 0.6225,1.5275 -0.0525,3.31 0.7325,4.785 1.6175,2.115 3.9075,3.66 6.385,4.595 2.7275,1.0275 5.66,1.41 8.5625,1.4125 4.975,0.07 9.905,-0.815 14.74,-1.92 4.5125,-1.055 8.9625,-2.3525 13.399997,-3.6875 3.44,-1.0775 6.8875,-2.185 10.14,-3.7575 1.41,-0.7175 2.8575,-1.495 3.875,-2.74 0.4325,-0.495 0.4325,-1.1875 0.68,-1.77 m -8.32,8.38 c -0.055,1.39 0.29,2.8775 -0.375,4.1725 2.805,-0.945 5.85,-1.825 7.9325,-4.055 1.1225,-1.155 1.17,-2.9375 0.4,-4.2975 -2.4725,1.72 -5.335,2.73 -7.9575,4.18 m -13.507497,4.19 c 0.3425,1.38 0.5275,2.795 0.9025,4.17 2.775,-1.375 6.072497,-1.4675 8.654997,-3.2625 1.365,-0.925 2.0275,-2.5675 2.0875,-4.1725 -3.94,0.8825 -7.739997,2.2675 -11.644997,3.265 m -37.91,-1.3875 c 0.2575,-0.475 0.81,-1.215 0.19,-1.635 -0.4,0.48 -0.5225,1.08 -0.19,1.635 m 0.7225,4.5 c -0.0175,0.9075 0.8775,1.3475 1.62,1.575 -0.32,-1.565 0.245,-3.085 0.43,-4.6225 0.11,-0.615 -0.295,-1.1175 -0.6975,-1.525 -0.435,1.525 -1.29,2.965 -1.3525,4.5725 m 50.597497,0.1425 c -0.75,0.9975 -0.4125,2.305 0.1025,3.325 1.4925,-0.22 2.155,-1.715 2.9025,-2.8325 0.625,-1.065 1.6825,-1.815 2.2325,-2.9275 0.2675,-0.3725 -0.1025,-0.665 -0.36,-0.875 -1.5375,1.23 -3.665,1.68 -4.8775,3.31 m -46.619997,-2.7975 c -0.665,1.63 -0.305,3.39 0.0375,5.0475 0.385,-0.0125 0.8025,-0.14 1.165,0.055 0.545,0.155 1.2,0.78 1.6625,0.1475 -0.2475,-0.33 -0.665,-0.66 -0.49,-1.13 0.3925,-0.845 1.0575,-1.59 1.0625,-2.575 -1.26,-0.2525 -2.275,-1.055 -3.4375,-1.545 m 21.9875,2.3475 c 0.0125,1.235 0.0075,2.47 0.0025,3.705 3.48,0.57 6.775,-0.9425 10.165,-1.3825 -0.3775,-1.065 -0.25,-2.215 -0.57,-3.285 -0.1575,-0.56 -0.765,-1.0525 -1.36,-0.8425 -2.695,0.825 -5.535,1.0125 -8.2375,1.805 m -16.79,-0.425 c 0.115,1.2975 -0.385,2.5025 -0.94,3.64 2.495,0.0025 4.94,0.815 7.4425,0.4875 -0.015,-1.085 -0.19,-2.27 0.405,-3.2475 -2.335,0.1325 -4.67,-0.23 -6.9075,-0.88 m 8.9025,0.8975 c 0.0875,1.1325 -0.8025,2.0775 -0.5675,3.2275 2.195,0.02 4.39,0.02 6.585,0 -0.0275,-1.2475 -0.0025,-2.4925 -0.02,-3.74 -2.0175,-0.0225 -3.975,0.8675 -5.9975,0.5125 m 20.9225,4.2075 c 0.005,0.78 0.0075,1.5725 0.2325,2.325 0.4125,1.525 1.4175,2.775 2.1475,4.15 2.732497,-2.0375 5.849997,-3.5475 8.324997,-5.9325 -0.3675,-0.1775 -0.85,-0.2675 -1.015,-0.6925 -0.47,-1.155 -0.115,-2.5025 -0.735,-3.62 -2.665,1.9075 -5.839997,2.88 -8.954997,3.77 m -11.1925,3.26 c -0.385,2.175 0.5975,4.355 0.0725,6.505 3.83,-0.125 7.5075,-1.2725 11.1475,-2.355 -0.6675,-2.355 -1.9975,-4.495 -2.3475,-6.9425 -2.76,1.4575 -5.805,2.285 -8.8725,2.7925 m -28.8825,-0.6425 c 0.4825,0.89 0.8825,1.815 1.2425,2.76 0.265,0.5375 0.485,1.2025 1.075,1.4625 -0.2675,-1.215 -0.61,-2.4525 -1.315,-3.495 -0.225,-0.365 -0.5975,-0.6 -1.0025,-0.7275 m 3.6625,1.055 c 0.1875,1.125 0.8025,2.1125 1.0325,3.225 -0.3975,0.205 -0.7975,0.405 -1.195,0.6075 -0.2425,-0.15 -0.4925,-0.2925 -0.745,-0.4275 0.035,0.105 0.1025,0.31 0.135,0.4125 1.21,0.7775 2.685,0.9625 4.05,1.3225 -0.73,-1.8775 -1.215,-4.265 -3.2775,-5.14 m 15.9075,0.98 c 0.255,1.8575 0.695,3.685 0.93,5.545 1.75,-0.105 3.5025,0.18 5.25,0.005 0.6525,-0.0475 1.235,-0.3675 1.72,-0.79 -0.895,-0.89 -0.47,-2.22 -0.395,-3.32 0.095,-0.8675 0.2225,-2.0975 -0.8175,-2.4375 -1.9575,1.3325 -4.4525,0.95 -6.6875,0.9975 m -12.1775,0.3875 c 0.83,1.21 2.2875,2.615 1.5275,4.2 1.1425,-0.27 2.075,0.69 3.21,0.5425 -0.3275,-1.5875 -1.51,-2.915 -1.4575,-4.5925 -1.1525,0.4325 -2.3375,-1.1975 -3.28,-0.15 m 5.1525,0.4725 c 0.775,1.335 1.4975,2.715 1.895,4.215 1.3325,0.34 2.905,1.015 4.18,0.1625 -0.8475,-1.4625 -0.405,-3.3025 -1.315,-4.7375 -1.575,0.26 -3.3575,-0.645 -4.76,0.36 z"
         id="path3717"
         inkscape:connector-curvature="0"
         style="opacity:1;fill:#000000" />
      <path
         d="m 85.255773,47.239044 c 1.81,-0.8625 4.0675,-0.5825 5.6825,0.5675 0.67,0.4075 0.4775,1.2925 0.54,1.95 0.0025,1.3875 -0.315,3.1575 -1.725,3.79 -0.6025,0.21 -1.91,0.0975 -1.7225,-0.8 -0.095,-1.13 1.5825,-1.1825 1.605,-2.2625 -0.0075,-0.55 -0.075,-1.2525 -0.62,-1.5375 -1.0175,-0.4625 -2.215,-0.05 -3.23,-0.5025 -0.505,-0.18 -0.48,-0.7725 -0.53,-1.205 z"
         id="path3719"
         inkscape:connector-curvature="0"
         style="opacity:1;fill:#000000" />
      <path
         d="m 91.848273,46.764044 c 0.2375,0.05 0.475,0.1025 0.71,0.1575 -0.3975,0.5725 -0.29,1.3425 0.435,1.565 1.875,0.5975 3.8725,-0.2375 5.775,0.2025 0.44,0.105 0.7275,0.4625 1.0125,0.785 -2.5725,-0.9225 -5.39,0.2 -7.94,-0.78 -0.005,-0.6425 -0.005,-1.2875 0.0075,-1.93 z"
         id="path3721"
         inkscape:connector-curvature="0"
         style="opacity:1;fill:#000000" />
      <path
         d="m 106.76327,51.464044 c 2.6225,-1.45 5.485,-2.46 7.9575,-4.18 0.77,1.36 0.7225,3.1425 -0.4,4.2975 -2.0825,2.23 -5.1275,3.11 -7.9325,4.055 0.665,-1.295 0.32,-2.7825 0.375,-4.1725 z"
         id="path3723"
         inkscape:connector-curvature="0"
         style="opacity:1;fill:#ffffff" />
      <path
         d="m 81.970773,50.204044 c 1.7175,-0.3975 3.5525,-0.24 5.21,0.3425 0.045,0.7725 -0.0475,1.5475 -0.4025,2.2425 -1.95,-1.6 -4.5025,0.105 -6.65,-0.8125 0.095,-0.97 0.9525,-1.58 1.8425,-1.7725 z"
         id="path3727"
         inkscape:connector-curvature="0"
         style="opacity:1;fill:#000000" />
      <path
         d="m 93.255773,55.654044 c 3.905,-0.9975 7.704997,-2.3825 11.644997,-3.265 -0.06,1.605 -0.7225,3.2475 -2.0875,4.1725 -2.5825,1.795 -5.879997,1.8875 -8.654997,3.2625 -0.375,-1.375 -0.56,-2.79 -0.9025,-4.17 z"
         id="path3729"
         inkscape:connector-curvature="0"
         style="opacity:1;fill:#ffffff" />
      <path
         d="m 55.345773,54.266544 c -0.3325,-0.555 -0.21,-1.155 0.19,-1.635 0.62,0.42 0.0675,1.16 -0.19,1.635 z"
         id="path3731"
         inkscape:connector-curvature="0"
         style="opacity:1;fill:#ffffff" />
      <path
         d="m 56.068273,58.766544 c 0.0625,-1.6075 0.9175,-3.0475 1.3525,-4.5725 0.4025,0.4075 0.8075,0.91 0.6975,1.525 -0.185,1.5375 -0.75,3.0575 -0.43,4.6225 -0.7425,-0.2275 -1.6375,-0.6675 -1.62,-1.575 z"
         id="path3733"
         inkscape:connector-curvature="0"
         style="opacity:1;fill:#ffffff" />
      <path
         d="m 106.66577,58.909044 c 1.2125,-1.63 3.34,-2.08 4.8775,-3.31 0.2575,0.21 0.6275,0.5025 0.36,0.875 -0.55,1.1125 -1.6075,1.8625 -2.2325,2.9275 -0.7475,1.1175 -1.41,2.6125 -2.9025,2.8325 -0.515,-1.02 -0.8525,-2.3275 -0.1025,-3.325 z"
         id="path3735"
         inkscape:connector-curvature="0"
         style="opacity:1;fill:#ffffff" />
      <path
         d="m 60.045773,56.111544 c 1.1625,0.49 2.1775,1.2925 3.4375,1.545 -0.005,0.985 -0.67,1.73 -1.0625,2.575 -0.175,0.47 0.2425,0.8 0.49,1.13 -0.4625,0.6325 -1.1175,0.0075 -1.6625,-0.1475 -0.3625,-0.195 -0.78,-0.0675 -1.165,-0.055 -0.3425,-1.6575 -0.7025,-3.4175 -0.0375,-5.0475 z"
         id="path3737"
         inkscape:connector-curvature="0"
         style="opacity:1;fill:#ffffff" />
      <path
         d="m 82.033273,58.459044 c 2.7025,-0.7925 5.5425,-0.98 8.2375,-1.805 0.595,-0.21 1.2025,0.2825 1.36,0.8425 0.32,1.07 0.1925,2.22 0.57,3.285 -3.39,0.44 -6.685,1.9525 -10.165,1.3825 0.005,-1.235 0.01,-2.47 -0.0025,-3.705 z"
         id="path3739"
         inkscape:connector-curvature="0"
         style="opacity:1;fill:#ffffff" />
      <path
         d="m 131.99827,60.689044 c -0.3675,-1.0225 -0.3475,-2.12 0,-3.1425 l 0,3.1425 z"
         id="path3741"
         inkscape:connector-curvature="0"
         style="opacity:1;fill:#cacaca" />
      <path
         d="m 65.243273,58.034044 c 2.2375,0.65 4.5725,1.0125 6.9075,0.88 -0.595,0.9775 -0.42,2.1625 -0.405,3.2475 -2.5025,0.3275 -4.9475,-0.485 -7.4425,-0.4875 0.555,-1.1375 1.055,-2.3425 0.94,-3.64 z"
         id="path3743"
         inkscape:connector-curvature="0"
         style="opacity:1;fill:#ffffff" />
      <path
         d="m 74.145773,58.931544 c 2.0225,0.355 3.98,-0.535 5.9975,-0.5125 0.0175,1.2475 -0.0075,2.4925 0.02,3.74 -2.195,0.02 -4.39,0.02 -6.585,0 -0.235,-1.15 0.655,-2.095 0.5675,-3.2275 z"
         id="path3745"
         inkscape:connector-curvature="0"
         style="opacity:1;fill:#ffffff" />
      <path
         d="m 95.068273,63.139044 c 3.115,-0.89 6.289997,-1.8625 8.954997,-3.77 0.62,1.1175 0.265,2.465 0.735,3.62 0.165,0.425 0.6475,0.515 1.015,0.6925 -2.475,2.385 -5.5925,3.895 -8.324997,5.9325 -0.73,-1.375 -1.735,-2.625 -2.1475,-4.15 -0.225,-0.7525 -0.2275,-1.545 -0.2325,-2.325 z"
         id="path3747"
         inkscape:connector-curvature="0"
         style="opacity:1;fill:#ffffff" />
      <path
         d="m 83.875773,66.399044 c 3.0675,-0.5075 6.1125,-1.335 8.8725,-2.7925 0.35,2.4475 1.68,4.5875 2.3475,6.9425 -3.64,1.0825 -7.3175,2.23 -11.1475,2.355 0.525,-2.15 -0.4575,-4.33 -0.0725,-6.505 z"
         id="path3749"
         inkscape:connector-curvature="0"
         style="opacity:1;fill:#ffffff" />
      <path
         d="m 131.99827,65.226544 c -0.395,-0.2875 -0.57,-1.035 0,-1.23 l 0,1.23 z"
         id="path3751"
         inkscape:connector-curvature="0"
         style="opacity:1;fill:#c7c7c7" />
      <path
         d="m 54.993273,65.756544 c 0.405,0.1275 0.7775,0.3625 1.0025,0.7275 0.705,1.0425 1.0475,2.28 1.315,3.495 -0.59,-0.26 -0.81,-0.925 -1.075,-1.4625 -0.36,-0.945 -0.76,-1.87 -1.2425,-2.76 z"
         id="path3753"
         inkscape:connector-curvature="0"
         style="opacity:1;fill:#ffffff" />
      <path
         d="m 58.655773,66.811544 c 2.0625,0.875 2.5475,3.2625 3.2775,5.14 -1.365,-0.36 -2.84,-0.545 -4.05,-1.3225 -0.0325,-0.1025 -0.1,-0.3075 -0.135,-0.4125 0.2525,0.135 0.5025,0.2775 0.745,0.4275 0.3975,-0.2025 0.7975,-0.4025 1.195,-0.6075 -0.23,-1.1125 -0.845,-2.1 -1.0325,-3.225 z"
         id="path3755"
         inkscape:connector-curvature="0"
         style="opacity:1;fill:#ffffff" />
      <path
         d="m 74.563273,67.791544 c 2.235,-0.0475 4.73,0.335 6.6875,-0.9975 1.04,0.34 0.9125,1.57 0.8175,2.4375 -0.075,1.1 -0.5,2.43 0.395,3.32 -0.485,0.4225 -1.0675,0.7425 -1.72,0.79 -1.7475,0.175 -3.5,-0.11 -5.25,-0.005 -0.235,-1.86 -0.675,-3.6875 -0.93,-5.545 z"
         id="path3757"
         inkscape:connector-curvature="0"
         style="opacity:1;fill:#ffffff" />
      <path
         d="m 62.385773,68.179044 c 0.9425,-1.0475 2.1275,0.5825 3.28,0.15 -0.0525,1.6775 1.13,3.005 1.4575,4.5925 -1.135,0.1475 -2.0675,-0.8125 -3.21,-0.5425 0.76,-1.585 -0.6975,-2.99 -1.5275,-4.2 z"
         id="path3759"
         inkscape:connector-curvature="0"
         style="opacity:1;fill:#ffffff" />
      <path
         d="m 67.538273,68.651544 c 1.4025,-1.005 3.185,-0.1 4.76,-0.36 0.91,1.435 0.4675,3.275 1.315,4.7375 -1.275,0.8525 -2.8475,0.1775 -4.18,-0.1625 -0.3975,-1.5 -1.12,-2.88 -1.895,-4.215 z"
         id="path3761"
         inkscape:connector-curvature="0"
         style="opacity:1;fill:#ffffff" />
      <path
         d="m 131.99827,68.914044 c -0.5025,0.11 -0.405,-0.645 0,-0.685 l 0,0.685 z"
         id="path3763"
         inkscape:connector-curvature="0"
         style="opacity:1;fill:#c5c5c5" />
      <path
         d="m 102.69327,72.174044 c 1.7925,-0.8225 3.6,-1.655 5.53,-2.095 -3.9025,1.7075 -7.54,3.9475 -11.384997,5.775 -4.1925,2.0325 -8.66,3.655 -13.3275,4.0925 -5.5675,0.575 -11.1775,0.9525 -16.775,0.625 -2.6025,-0.195 -5.31,-0.575 -7.5525,-2.01 -1.24,-0.785 -2.205,-1.95 -2.85,-3.26 1.6025,2.0025 3.955,3.23 6.4175,3.8275 5.055,1.2525 10.32,1.0225 15.47,0.7025 2.9375,-0.26 5.91,-0.3825 8.78,-1.1125 5.5475,-1.3375 10.5825,-4.105 15.692497,-6.545 z"
         id="path3765"
         inkscape:connector-curvature="0"
         style="opacity:1;fill:#000000" />
      <path
         d="m 112.76827,70.101544 c -0.9175,0.8375 -1.985,1.485 -3.0325,2.1425 -4.3675,2.6625 -9.1225,4.625 -13.967497,6.23 -8.72,2.825 -17.83,4.475 -26.995,4.775 -3.635,0.1125 -7.3425,0.2325 -10.8925,-0.6925 -2.215,-0.5675 -4.3025,-1.7575 -5.74,-3.56 0.01,-0.995 -0.025,-1.9925 0.04,-2.985 1.17,0.5625 -0.135,2.0725 0.725,2.8375 1.39,1.7 3.4825,2.63 5.56,3.185 3.2725,0.8425 6.68,0.93 10.04,0.8425 6.74,-0.26 13.4675,-1.1475 19.9875,-2.8975 8.4575,-2.27 16.669997,-5.53 24.274997,-9.8775 z"
         id="path3767"
         inkscape:connector-curvature="0"
         style="opacity:1;fill:#000000" />
      <path
         d="m 131.99827,78.931544 c -0.36,-1.0175 -0.3625,-2.1125 0,-3.13 l 0,3.13 z"
         id="path3769"
         inkscape:connector-curvature="0"
         style="opacity:1;fill:#cacaca" />
      <path
         d="m 67.203273,77.536544 c 1.6275,-0.8675 3.55,-0.38 5.305,-0.385 3.2675,-0.005 6.545,-0.1425 9.81,0.0125 -3.23,0.6775 -6.5525,0.4425 -9.83,0.385 -1.76,-0.05 -3.5225,-0.03 -5.285,-0.0125 z"
         id="path3771"
         inkscape:connector-curvature="0"
         style="opacity:1;fill:#000000" />
      <path
         d="m 96.288273,91.246544 c 0.635,-0.175 1.29,-0.295 1.9525,-0.2675 1.999997,0.0325 4.002497,0.02 6.002497,0 0.5925,-0.015 1.175,0.11 1.745,0.2675 l -9.699997,0 z"
         id="path3773"
         inkscape:connector-curvature="0"
         style="opacity:1;fill:#cbcbcb" />
    </g>
  </g>
</svg>
